<?xml version="1.0" standalone="no"?>
<!DOCTYPE svg PUBLIC "-//W3C//DTD SVG 20010904//EN"
 "http://www.w3.org/TR/2001/REC-SVG-20010904/DTD/svg10.dtd">
<svg version="1.0" xmlns="http://www.w3.org/2000/svg"
 width="700.000000pt" height="700.000000pt" viewBox="0 0 700.000000 700.000000"
 preserveAspectRatio="xMidYMid meet">
<metadata>
Created by potrace 1.14, written by Peter Selinger 2001-2017
</metadata>
<g transform="translate(0.000000,700.000000) scale(0.100000,-0.100000)"
fill="#000000" stroke="none">
<path d="M159 6608 c-4 -12 -3 -6271 1 -6273 5 -3 424 151 475 175 11 5 130
50 265 100 135 50 254 96 265 101 11 4 128 49 260 99 132 50 332 127 445 170
113 43 277 106 365 139 149 56 306 116 725 276 340 129 973 370 1200 456 129
49 244 93 255 98 11 5 36 14 55 21 19 7 44 16 55 21 28 12 1201 459 1250 476
22 7 49 18 60 23 11 5 135 52 275 105 140 53 264 100 275 105 11 5 100 39 198
76 97 37 177 70 177 73 -1 3 -183 110 -406 236 -223 127 -427 242 -452 257
-26 15 -63 35 -82 46 -19 11 -161 91 -315 179 -154 88 -307 175 -340 193 -33
18 -96 55 -141 81 -44 26 -100 58 -125 72 -24 13 -255 144 -514 292 -258 147
-490 279 -515 293 -25 14 -90 51 -145 82 -55 32 -118 68 -140 80 -35 20 -625
355 -1265 720 -113 64 -225 128 -250 142 -25 14 -173 99 -330 188 -295 168
-549 313 -610 347 -19 11 -100 57 -180 103 -80 45 -165 94 -190 108 -95 53
-537 305 -567 324 -18 11 -34 18 -34 16z m971 -934 c278 -158 520 -295 538
-306 18 -10 66 -37 105 -59 40 -23 92 -53 117 -67 25 -14 153 -87 285 -162
132 -75 263 -149 290 -164 28 -16 55 -31 60 -36 6 -4 35 -21 65 -37 61 -33
404 -228 460 -262 19 -11 51 -29 70 -40 20 -10 112 -63 205 -116 94 -54 190
-109 215 -123 25 -13 126 -71 225 -127 99 -57 198 -113 220 -125 22 -12 103
-59 180 -103 77 -44 165 -94 195 -111 30 -16 75 -42 100 -57 25 -15 72 -42
105 -59 33 -18 67 -39 76 -46 8 -8 19 -14 23 -14 4 0 51 -25 104 -56 53 -31
115 -66 137 -78 58 -32 855 -486 890 -507 29 -18 1 -18 -880 -19 -501 0 -1298
0 -1773 0 l-863 0 3 -142 3 -143 1558 0 c856 0 1557 -2 1557 -5 0 -4 -145 -62
-185 -74 -5 -2 -17 -6 -25 -9 -17 -7 -427 -163 -480 -183 -19 -7 -105 -39
-190 -72 -85 -32 -306 -116 -490 -186 -184 -70 -344 -131 -355 -136 -11 -4
-47 -18 -80 -30 -33 -13 -69 -26 -80 -31 -11 -5 -108 -42 -215 -82 -384 -146
-867 -330 -990 -377 -69 -26 -228 -87 -355 -135 -126 -47 -239 -90 -250 -95
-11 -5 -76 -30 -145 -56 -69 -25 -138 -52 -155 -59 -16 -7 -64 -25 -105 -40
-41 -15 -88 -33 -105 -40 -140 -58 -627 -237 -631 -232 -4 4 -8 4830 -4 5094
l0 32 33 -18 c17 -11 259 -148 537 -307z"/>
<path d="M1097 4833 c3 -10 14 -29 23 -43 10 -14 28 -45 42 -70 36 -65 60
-105 113 -195 26 -44 56 -94 66 -112 10 -18 97 -167 194 -333 97 -166 185
-317 195 -336 11 -18 30 -51 41 -71 38 -68 59 -92 77 -88 9 1 76 6 147 10 72
3 150 8 175 10 65 4 255 17 325 20 53 3 136 8 320 20 28 2 102 6 166 10 149 8
231 14 235 18 2 1 -14 30 -34 62 -21 33 -54 90 -75 126 l-36 66 -163 76 c-90
42 -206 96 -258 120 -52 25 -126 59 -165 77 -38 18 -137 64 -220 102 -82 39
-179 83 -215 100 -36 16 -99 46 -140 65 -41 20 -131 61 -200 93 -69 32 -165
77 -215 100 -49 23 -117 55 -150 70 -119 55 -220 102 -237 111 -14 8 -16 6
-11 -8z"/>
</g>
</svg>
